<svg width="32" height="32" viewBox="0 0 32 32" fill="none" xmlns="http://www.w3.org/2000/svg">
<g clip-path="url(#clip0_12054_205994)">
<path d="M28.2255 12.5562C30.1934 12.5562 31.702 14.0451 31.726 16.0108C31.7477 17.9047 30.163 19.4851 28.2299 19.496C26.3273 19.5091 24.7665 17.9548 24.723 16.0065C24.6816 14.117 26.2664 12.5562 28.2255 12.5562Z" fill="#FF6117"/>
<path d="M19.5004 16.0871C19.4787 17.9832 17.8743 19.5026 15.9347 19.4591C13.9647 19.4155 12.4735 17.8787 12.5257 15.9391C12.578 13.9995 14.1366 12.517 16.0871 12.5519C18.0354 12.5867 19.5222 14.1279 19.5004 16.0871Z" fill="#FF6117"/>
<path fill-rule="evenodd" clip-rule="evenodd" d="M3.79393 7.28814C5.73788 7.25984 7.25298 5.71644 7.23992 3.77902C7.22903 1.79807 5.73135 0.304738 3.76128 0.309092C1.8674 0.315622 0.273933 1.92651 0.289171 3.82038C0.306586 5.75562 1.88264 7.31644 3.79393 7.28814ZM31.7323 3.8205C31.7758 1.94839 30.1758 0.352745 28.2515 0.348391C26.3075 0.346214 24.7358 1.86349 24.714 3.7639C24.6945 5.62077 26.3315 7.27737 28.1927 7.28825C30.0757 7.29914 31.6887 5.71873 31.7323 3.8205ZM6.87046 14.4479C6.24788 13.2158 5.2008 12.6149 3.64869 12.5322C2.41658 12.5997 1.31073 13.1766 0.642432 14.4805C-0.0323978 15.8062 0.211412 17.0231 1.03645 18.1921C3.4223 21.5728 3.41794 22.6743 1.03427 26.1007C-0.0846426 27.7115 0.0895069 29.6555 1.46529 30.868C2.78012 32.0283 4.80896 31.9934 6.10856 30.7875C7.4974 29.5009 7.65196 27.6027 6.49821 26.0223C4.09277 22.7287 4.09277 21.5205 6.52216 18.1638C7.37332 16.9883 7.52787 15.7496 6.87046 14.4479ZM28.2556 31.7693C26.4488 31.8194 24.7661 30.1758 24.716 28.3146C24.666 26.4381 26.2202 24.7903 28.088 24.7358C30.0668 24.6792 31.7234 26.2771 31.7321 28.2493C31.7386 30.0953 30.1386 31.7171 28.2556 31.7693ZM16.0787 31.7257C14.1109 31.7518 12.5827 30.2759 12.5457 28.3124C12.5065 26.3641 13.9889 24.7902 15.922 24.7271C17.805 24.6661 19.4442 26.2422 19.4834 28.1447C19.5204 30.0647 17.9639 31.7017 16.0787 31.7257ZM12.5283 3.78988C12.5327 5.71641 14.0892 7.28811 16.0004 7.30117C17.8747 7.31206 19.5379 5.66199 19.503 3.82253C19.4639 1.84158 17.9618 0.33301 16.0287 0.33301C14.0979 0.330833 12.5218 1.8873 12.5283 3.78988Z" fill="#1C1549"/>
</g>
<defs>
<clipPath id="clip0_12054_205994">
<rect width="32" height="32" fill="white"/>
</clipPath>
</defs>
</svg>
